<mxfile host="www.draw.io" modified="2020-02-15T22:41:25.939Z" agent="Mozilla/5.0 (Windows NT 10.0; Win64; x64) AppleWebKit/537.36 (KHTML, like Gecko) Chrome/79.0.3945.130 Safari/537.36" etag="2OyH4PxbXeXluCACaviU" version="12.7.0" type="github">
  <diagram id="NziWb18JPGcyu2DJO639" name="Page-1">
    <mxGraphModel dx="1952" dy="614" grid="1" gridSize="10" guides="1" tooltips="1" connect="1" arrows="1" fold="1" page="1" pageScale="1" pageWidth="850" pageHeight="1100" math="0" shadow="0">
      <root>
        <mxCell id="0"/>
        <mxCell id="1" parent="0"/>
        <mxCell id="IUl-IKqQxam2fvS5Nzy_-1" value="15.0&lt;br&gt;Submit hours" style="whiteSpace=wrap;html=1;aspect=fixed;" vertex="1" parent="1">
          <mxGeometry x="360" width="80" height="80" as="geometry"/>
        </mxCell>
        <mxCell id="IUl-IKqQxam2fvS5Nzy_-2" value="&lt;span style=&quot;white-space: normal&quot;&gt;15.1&lt;/span&gt;&lt;br style=&quot;white-space: normal&quot;&gt;&lt;span style=&quot;white-space: normal&quot;&gt;Query database&lt;/span&gt;" style="shape=process;whiteSpace=wrap;html=1;backgroundOutline=1;" vertex="1" parent="1">
          <mxGeometry x="120" y="180" width="120" height="60" as="geometry"/>
        </mxCell>
        <mxCell id="IUl-IKqQxam2fvS5Nzy_-3" value="15.1.1&lt;br&gt;Connect to database" style="shape=process;whiteSpace=wrap;html=1;backgroundOutline=1;" vertex="1" parent="1">
          <mxGeometry x="-120" y="380" width="120" height="60" as="geometry"/>
        </mxCell>
        <mxCell id="IUl-IKqQxam2fvS5Nzy_-4" value="15.1.2&lt;br&gt;Prepare statement" style="shape=process;whiteSpace=wrap;html=1;backgroundOutline=1;" vertex="1" parent="1">
          <mxGeometry x="120" y="380" width="120" height="60" as="geometry"/>
        </mxCell>
        <mxCell id="IUl-IKqQxam2fvS5Nzy_-5" value="&lt;span style=&quot;white-space: normal&quot;&gt;15.1.3&lt;/span&gt;&lt;br style=&quot;white-space: normal&quot;&gt;&lt;span style=&quot;white-space: normal&quot;&gt;Execute statement&lt;/span&gt;" style="shape=process;whiteSpace=wrap;html=1;backgroundOutline=1;fillColor=#FFFFFF;" vertex="1" parent="1">
          <mxGeometry x="360" y="380" width="120" height="60" as="geometry"/>
        </mxCell>
        <mxCell id="IUl-IKqQxam2fvS5Nzy_-6" value="" style="endArrow=classic;html=1;entryX=0.5;entryY=0;entryDx=0;entryDy=0;exitX=0;exitY=1;exitDx=0;exitDy=0;" edge="1" parent="1" source="IUl-IKqQxam2fvS5Nzy_-2" target="IUl-IKqQxam2fvS5Nzy_-3">
          <mxGeometry width="50" height="50" relative="1" as="geometry">
            <mxPoint x="30" y="310" as="sourcePoint"/>
            <mxPoint x="80" y="260" as="targetPoint"/>
          </mxGeometry>
        </mxCell>
        <mxCell id="IUl-IKqQxam2fvS5Nzy_-7" value="" style="endArrow=classic;html=1;exitX=0.5;exitY=1;exitDx=0;exitDy=0;entryX=0.5;entryY=0;entryDx=0;entryDy=0;" edge="1" parent="1" source="IUl-IKqQxam2fvS5Nzy_-2" target="IUl-IKqQxam2fvS5Nzy_-4">
          <mxGeometry width="50" height="50" relative="1" as="geometry">
            <mxPoint x="190" y="310" as="sourcePoint"/>
            <mxPoint x="240" y="260" as="targetPoint"/>
          </mxGeometry>
        </mxCell>
        <mxCell id="IUl-IKqQxam2fvS5Nzy_-8" value="" style="endArrow=classic;html=1;exitX=1;exitY=1;exitDx=0;exitDy=0;entryX=0.5;entryY=0;entryDx=0;entryDy=0;" edge="1" parent="1" source="IUl-IKqQxam2fvS5Nzy_-2" target="IUl-IKqQxam2fvS5Nzy_-5">
          <mxGeometry width="50" height="50" relative="1" as="geometry">
            <mxPoint x="260" y="340" as="sourcePoint"/>
            <mxPoint x="310" y="290" as="targetPoint"/>
          </mxGeometry>
        </mxCell>
        <mxCell id="IUl-IKqQxam2fvS5Nzy_-9" value="" style="endArrow=classic;html=1;entryX=0.5;entryY=0;entryDx=0;entryDy=0;exitX=0;exitY=1;exitDx=0;exitDy=0;" edge="1" parent="1" source="IUl-IKqQxam2fvS5Nzy_-1" target="IUl-IKqQxam2fvS5Nzy_-2">
          <mxGeometry width="50" height="50" relative="1" as="geometry">
            <mxPoint x="360" y="200" as="sourcePoint"/>
            <mxPoint x="410" y="150" as="targetPoint"/>
          </mxGeometry>
        </mxCell>
        <mxCell id="IUl-IKqQxam2fvS5Nzy_-10" value="15.2&lt;br&gt;Confirm hours" style="whiteSpace=wrap;html=1;aspect=fixed;" vertex="1" parent="1">
          <mxGeometry x="440" y="160" width="80" height="80" as="geometry"/>
        </mxCell>
        <mxCell id="IUl-IKqQxam2fvS5Nzy_-11" value="" style="endArrow=classic;html=1;exitX=0.5;exitY=1;exitDx=0;exitDy=0;entryX=0;entryY=0;entryDx=0;entryDy=0;" edge="1" parent="1" source="IUl-IKqQxam2fvS5Nzy_-1" target="IUl-IKqQxam2fvS5Nzy_-10">
          <mxGeometry width="50" height="50" relative="1" as="geometry">
            <mxPoint x="480" y="130" as="sourcePoint"/>
            <mxPoint x="530" y="80" as="targetPoint"/>
          </mxGeometry>
        </mxCell>
        <mxCell id="IUl-IKqQxam2fvS5Nzy_-13" value="" style="ellipse;whiteSpace=wrap;html=1;aspect=fixed;fillColor=#000000;" vertex="1" parent="1">
          <mxGeometry x="890" y="320" width="10" height="10" as="geometry"/>
        </mxCell>
        <mxCell id="IUl-IKqQxam2fvS5Nzy_-14" value="" style="ellipse;whiteSpace=wrap;html=1;aspect=fixed;" vertex="1" parent="1">
          <mxGeometry x="360" y="310" width="10" height="10" as="geometry"/>
        </mxCell>
        <mxCell id="IUl-IKqQxam2fvS5Nzy_-15" value="" style="ellipse;whiteSpace=wrap;html=1;aspect=fixed;" vertex="1" parent="1">
          <mxGeometry x="290" y="300" width="10" height="10" as="geometry"/>
        </mxCell>
        <mxCell id="IUl-IKqQxam2fvS5Nzy_-16" value="" style="ellipse;whiteSpace=wrap;html=1;aspect=fixed;" vertex="1" parent="1">
          <mxGeometry x="200" y="330" width="10" height="10" as="geometry"/>
        </mxCell>
        <mxCell id="IUl-IKqQxam2fvS5Nzy_-17" value="" style="ellipse;whiteSpace=wrap;html=1;aspect=fixed;" vertex="1" parent="1">
          <mxGeometry x="150" y="290" width="10" height="10" as="geometry"/>
        </mxCell>
        <mxCell id="IUl-IKqQxam2fvS5Nzy_-18" value="" style="ellipse;whiteSpace=wrap;html=1;aspect=fixed;" vertex="1" parent="1">
          <mxGeometry x="30" y="330" width="10" height="10" as="geometry"/>
        </mxCell>
        <mxCell id="IUl-IKqQxam2fvS5Nzy_-19" value="" style="ellipse;whiteSpace=wrap;html=1;aspect=fixed;" vertex="1" parent="1">
          <mxGeometry x="10" y="290" width="10" height="10" as="geometry"/>
        </mxCell>
        <mxCell id="IUl-IKqQxam2fvS5Nzy_-20" value="15.2.1&lt;br&gt;Display time sheet" style="whiteSpace=wrap;html=1;aspect=fixed;" vertex="1" parent="1">
          <mxGeometry x="480" y="360" width="80" height="80" as="geometry"/>
        </mxCell>
        <mxCell id="IUl-IKqQxam2fvS5Nzy_-21" value="" style="endArrow=classic;html=1;entryX=0.5;entryY=0;entryDx=0;entryDy=0;exitX=0.5;exitY=1;exitDx=0;exitDy=0;" edge="1" parent="1" source="IUl-IKqQxam2fvS5Nzy_-10" target="IUl-IKqQxam2fvS5Nzy_-20">
          <mxGeometry width="50" height="50" relative="1" as="geometry">
            <mxPoint x="570" y="260" as="sourcePoint"/>
            <mxPoint x="620" y="210" as="targetPoint"/>
          </mxGeometry>
        </mxCell>
        <mxCell id="IUl-IKqQxam2fvS5Nzy_-22" value="" style="endArrow=classic;html=1;exitX=1;exitY=1;exitDx=0;exitDy=0;entryX=0.5;entryY=0;entryDx=0;entryDy=0;" edge="1" parent="1" source="IUl-IKqQxam2fvS5Nzy_-10" target="IUl-IKqQxam2fvS5Nzy_-23">
          <mxGeometry width="50" height="50" relative="1" as="geometry">
            <mxPoint x="640" y="310" as="sourcePoint"/>
            <mxPoint x="670" y="300" as="targetPoint"/>
          </mxGeometry>
        </mxCell>
        <mxCell id="IUl-IKqQxam2fvS5Nzy_-23" value="15.2.2&lt;br&gt;Prepare statement" style="shape=process;whiteSpace=wrap;html=1;backgroundOutline=1;" vertex="1" parent="1">
          <mxGeometry x="680" y="380" width="120" height="60" as="geometry"/>
        </mxCell>
        <mxCell id="IUl-IKqQxam2fvS5Nzy_-24" value="15.3&lt;br&gt;Commit to database" style="whiteSpace=wrap;html=1;aspect=fixed;" vertex="1" parent="1">
          <mxGeometry x="720" y="160" width="80" height="80" as="geometry"/>
        </mxCell>
        <mxCell id="IUl-IKqQxam2fvS5Nzy_-25" value="15.3.1&lt;br&gt;Execute statement" style="shape=process;whiteSpace=wrap;html=1;backgroundOutline=1;" vertex="1" parent="1">
          <mxGeometry x="840" y="380" width="120" height="60" as="geometry"/>
        </mxCell>
        <mxCell id="IUl-IKqQxam2fvS5Nzy_-26" value="" style="endArrow=classic;html=1;exitX=1;exitY=1;exitDx=0;exitDy=0;entryX=0.5;entryY=0;entryDx=0;entryDy=0;" edge="1" parent="1" source="IUl-IKqQxam2fvS5Nzy_-1" target="IUl-IKqQxam2fvS5Nzy_-24">
          <mxGeometry width="50" height="50" relative="1" as="geometry">
            <mxPoint x="650" y="120" as="sourcePoint"/>
            <mxPoint x="700" y="70" as="targetPoint"/>
          </mxGeometry>
        </mxCell>
        <mxCell id="IUl-IKqQxam2fvS5Nzy_-27" value="" style="endArrow=classic;html=1;exitX=1;exitY=1;exitDx=0;exitDy=0;entryX=0.5;entryY=0;entryDx=0;entryDy=0;" edge="1" parent="1" source="IUl-IKqQxam2fvS5Nzy_-24" target="IUl-IKqQxam2fvS5Nzy_-25">
          <mxGeometry width="50" height="50" relative="1" as="geometry">
            <mxPoint x="840" y="290" as="sourcePoint"/>
            <mxPoint x="890" y="240" as="targetPoint"/>
          </mxGeometry>
        </mxCell>
        <mxCell id="IUl-IKqQxam2fvS5Nzy_-28" value="" style="endArrow=classic;html=1;" edge="1" parent="1">
          <mxGeometry width="50" height="50" relative="1" as="geometry">
            <mxPoint x="10" y="300" as="sourcePoint"/>
            <mxPoint x="-20" y="330" as="targetPoint"/>
          </mxGeometry>
        </mxCell>
        <mxCell id="IUl-IKqQxam2fvS5Nzy_-29" value="" style="endArrow=classic;html=1;" edge="1" parent="1">
          <mxGeometry width="50" height="50" relative="1" as="geometry">
            <mxPoint x="40" y="330" as="sourcePoint"/>
            <mxPoint x="80" y="290" as="targetPoint"/>
          </mxGeometry>
        </mxCell>
        <mxCell id="IUl-IKqQxam2fvS5Nzy_-30" value="" style="endArrow=classic;html=1;" edge="1" parent="1">
          <mxGeometry width="50" height="50" relative="1" as="geometry">
            <mxPoint x="154.5" y="300" as="sourcePoint"/>
            <mxPoint x="154.5" y="340" as="targetPoint"/>
          </mxGeometry>
        </mxCell>
        <mxCell id="IUl-IKqQxam2fvS5Nzy_-31" value="" style="endArrow=classic;html=1;" edge="1" parent="1">
          <mxGeometry width="50" height="50" relative="1" as="geometry">
            <mxPoint x="204.5" y="330" as="sourcePoint"/>
            <mxPoint x="204.5" y="290" as="targetPoint"/>
          </mxGeometry>
        </mxCell>
        <mxCell id="IUl-IKqQxam2fvS5Nzy_-32" value="" style="endArrow=classic;html=1;" edge="1" parent="1">
          <mxGeometry width="50" height="50" relative="1" as="geometry">
            <mxPoint x="300" y="310" as="sourcePoint"/>
            <mxPoint x="330" y="340" as="targetPoint"/>
          </mxGeometry>
        </mxCell>
        <mxCell id="IUl-IKqQxam2fvS5Nzy_-33" value="" style="endArrow=classic;html=1;" edge="1" parent="1">
          <mxGeometry width="50" height="50" relative="1" as="geometry">
            <mxPoint x="360" y="310" as="sourcePoint"/>
            <mxPoint x="320" y="280" as="targetPoint"/>
          </mxGeometry>
        </mxCell>
        <mxCell id="IUl-IKqQxam2fvS5Nzy_-35" value="" style="ellipse;whiteSpace=wrap;html=1;aspect=fixed;" vertex="1" parent="1">
          <mxGeometry x="810" y="300" width="10" height="10" as="geometry"/>
        </mxCell>
        <mxCell id="IUl-IKqQxam2fvS5Nzy_-36" value="" style="ellipse;whiteSpace=wrap;html=1;aspect=fixed;" vertex="1" parent="1">
          <mxGeometry x="680" y="310" width="10" height="10" as="geometry"/>
        </mxCell>
        <mxCell id="IUl-IKqQxam2fvS5Nzy_-37" value="" style="ellipse;whiteSpace=wrap;html=1;aspect=fixed;" vertex="1" parent="1">
          <mxGeometry x="610" y="310" width="10" height="10" as="geometry"/>
        </mxCell>
        <mxCell id="IUl-IKqQxam2fvS5Nzy_-38" value="" style="ellipse;whiteSpace=wrap;html=1;aspect=fixed;fillColor=#000000;" vertex="1" parent="1">
          <mxGeometry x="530" y="320" width="10" height="10" as="geometry"/>
        </mxCell>
        <mxCell id="IUl-IKqQxam2fvS5Nzy_-40" value="" style="endArrow=classic;html=1;" edge="1" parent="1">
          <mxGeometry width="50" height="50" relative="1" as="geometry">
            <mxPoint x="530" y="320" as="sourcePoint"/>
            <mxPoint x="520" y="280" as="targetPoint"/>
          </mxGeometry>
        </mxCell>
        <mxCell id="IUl-IKqQxam2fvS5Nzy_-41" value="" style="endArrow=classic;html=1;" edge="1" parent="1">
          <mxGeometry width="50" height="50" relative="1" as="geometry">
            <mxPoint x="620" y="320" as="sourcePoint"/>
            <mxPoint x="660" y="350" as="targetPoint"/>
          </mxGeometry>
        </mxCell>
        <mxCell id="IUl-IKqQxam2fvS5Nzy_-44" value="" style="endArrow=classic;html=1;" edge="1" parent="1">
          <mxGeometry width="50" height="50" relative="1" as="geometry">
            <mxPoint x="680" y="310" as="sourcePoint"/>
            <mxPoint x="630" y="280" as="targetPoint"/>
          </mxGeometry>
        </mxCell>
        <mxCell id="IUl-IKqQxam2fvS5Nzy_-45" value="" style="endArrow=classic;html=1;" edge="1" parent="1">
          <mxGeometry width="50" height="50" relative="1" as="geometry">
            <mxPoint x="820" y="310" as="sourcePoint"/>
            <mxPoint x="850" y="350" as="targetPoint"/>
          </mxGeometry>
        </mxCell>
        <mxCell id="IUl-IKqQxam2fvS5Nzy_-46" value="" style="endArrow=classic;html=1;" edge="1" parent="1">
          <mxGeometry width="50" height="50" relative="1" as="geometry">
            <mxPoint x="890" y="320" as="sourcePoint"/>
            <mxPoint x="860" y="280" as="targetPoint"/>
          </mxGeometry>
        </mxCell>
        <mxCell id="IUl-IKqQxam2fvS5Nzy_-49" value="Database credentials" style="text;html=1;strokeColor=none;fillColor=none;align=center;verticalAlign=middle;whiteSpace=wrap;rounded=0;" vertex="1" parent="1">
          <mxGeometry x="-60" y="285" width="40" height="20" as="geometry"/>
        </mxCell>
        <mxCell id="IUl-IKqQxam2fvS5Nzy_-50" value="Database connection object" style="text;html=1;strokeColor=none;fillColor=none;align=center;verticalAlign=middle;whiteSpace=wrap;rounded=0;" vertex="1" parent="1">
          <mxGeometry x="50" y="340" width="40" height="20" as="geometry"/>
        </mxCell>
        <mxCell id="IUl-IKqQxam2fvS5Nzy_-51" value="Form variables" style="text;html=1;strokeColor=none;fillColor=none;align=center;verticalAlign=middle;whiteSpace=wrap;rounded=0;" vertex="1" parent="1">
          <mxGeometry x="110" y="300" width="40" height="20" as="geometry"/>
        </mxCell>
        <mxCell id="IUl-IKqQxam2fvS5Nzy_-52" value="Prepared statement" style="text;html=1;strokeColor=none;fillColor=none;align=center;verticalAlign=middle;whiteSpace=wrap;rounded=0;" vertex="1" parent="1">
          <mxGeometry x="220" y="305" width="40" height="20" as="geometry"/>
        </mxCell>
        <mxCell id="IUl-IKqQxam2fvS5Nzy_-53" value="Prepared statement" style="text;html=1;strokeColor=none;fillColor=none;align=center;verticalAlign=middle;whiteSpace=wrap;rounded=0;" vertex="1" parent="1">
          <mxGeometry x="275" y="340" width="40" height="20" as="geometry"/>
        </mxCell>
        <mxCell id="IUl-IKqQxam2fvS5Nzy_-54" value="Query object" style="text;html=1;strokeColor=none;fillColor=none;align=center;verticalAlign=middle;whiteSpace=wrap;rounded=0;" vertex="1" parent="1">
          <mxGeometry x="345" y="270" width="40" height="20" as="geometry"/>
        </mxCell>
        <mxCell id="IUl-IKqQxam2fvS5Nzy_-57" value="Time sheet" style="text;html=1;strokeColor=none;fillColor=none;align=center;verticalAlign=middle;whiteSpace=wrap;rounded=0;" vertex="1" parent="1">
          <mxGeometry x="530" y="295" width="40" height="20" as="geometry"/>
        </mxCell>
        <mxCell id="IUl-IKqQxam2fvS5Nzy_-58" value="Time sheet modifications" style="text;html=1;strokeColor=none;fillColor=none;align=center;verticalAlign=middle;whiteSpace=wrap;rounded=0;" vertex="1" parent="1">
          <mxGeometry x="580" y="340" width="40" height="20" as="geometry"/>
        </mxCell>
        <mxCell id="IUl-IKqQxam2fvS5Nzy_-60" value="Prepared statement" style="text;html=1;strokeColor=none;fillColor=none;align=center;verticalAlign=middle;whiteSpace=wrap;rounded=0;" vertex="1" parent="1">
          <mxGeometry x="665" y="265" width="40" height="20" as="geometry"/>
        </mxCell>
        <mxCell id="IUl-IKqQxam2fvS5Nzy_-61" value="Prepared statement" style="text;html=1;strokeColor=none;fillColor=none;align=center;verticalAlign=middle;whiteSpace=wrap;rounded=0;" vertex="1" parent="1">
          <mxGeometry x="780" y="325" width="40" height="20" as="geometry"/>
        </mxCell>
        <mxCell id="IUl-IKqQxam2fvS5Nzy_-62" value="Success message" style="text;html=1;strokeColor=none;fillColor=none;align=center;verticalAlign=middle;whiteSpace=wrap;rounded=0;" vertex="1" parent="1">
          <mxGeometry x="890" y="280" width="40" height="20" as="geometry"/>
        </mxCell>
      </root>
    </mxGraphModel>
  </diagram>
</mxfile>
